<?xml version="1.0" encoding="UTF-8"?><svg id="Layer_2" xmlns="http://www.w3.org/2000/svg" viewBox="0 0 226.17 226.17"><defs><style>.cls-1{fill:#fff;}.cls-2{fill:#d71730;}</style></defs><g id="Layer_1-2"><circle class="cls-1" cx="112.81" cy="113.35" r="112.81" transform="translate(-47.11 112.97) rotate(-45)"/><g><path class="cls-1" d="M66.66,155.09l-22.44,22.22v25.47c19.07,14.67,42.95,23.39,68.87,23.39,.78,0,1.55-.01,2.33-.03l-48.75-71.05Z"/><path class="cls-2" d="M105.77,220.93c-20.52-1.35-39.9-8.42-56.56-20.65v-20.89l16.71-16.54,39.85,58.07Z"/><path class="cls-1" d="M113.08,0C50.63,0,0,50.63,0,113.08c0,21.7,6.12,41.98,16.72,59.19V73.03h27.5v71.5L114.18,73.03h33.88l-62.7,62.7,60.8,85.52c46.32-14.15,80.01-57.22,80.01-108.17C226.17,50.63,175.54,0,113.08,0Z"/><path class="cls-2" d="M91.88,136.28l68.25-68.25h-48.05l-62.86,64.24V68.03H14.84C31.96,30.86,69.56,5,113.09,5c59.6,0,108.08,48.49,108.08,108.08,0,23.62-7.48,46.05-21.63,64.88-12.97,17.25-31.13,30.43-51.43,37.4l-56.23-79.08Zm-80.16,14.37c-4.43-11.95-6.72-24.66-6.72-37.56s2.37-25.83,6.72-37.53v75.09Z"/></g></g></svg>